<svg xmlns="http://www.w3.org/2000/svg" fill="none" viewBox="0 0 617 160"><g fill="#3F00A5" clip-path="url(#a)"><path d="M194.787 64.54v-5.834c0-19.184 16.482-33.375 35.851-33.375 3.884 0 7.768.578 9.5 1.156l-4.461 17.135c-1.575-.578-3.307-.789-5.039-.789-10.078 0-16.849 7.359-16.849 15.926v5.834h23.252v14.349h-23.252v72.952h-19.002V78.889h-11.232V64.54h11.232ZM240.874 108.217c0-25.228 18.214-44.623 42.254-44.623 12.387 0 23.253 6.623 29.656 16.504V64.593h18.949v87.301h-19.001v-15.505c-6.614 9.881-17.427 16.503-29.657 16.503-23.987-.052-42.201-19.657-42.201-44.675Zm19.001 0c0 16.872 11.81 30.064 26.35 30.064 12.387 0 26.559-10.302 26.559-30.064 0-16.661-11.442-30.064-26.559-30.064-14.54 0-26.35 13.56-26.35 30.064ZM343.962 115.202V64.588h18.791v51.823c0 11.248 8.503 20.971 20.523 20.971 15.327 0 23.621-12.982 23.621-22.127V64.64h18.791v87.301h-18.791v-11.825c-5.984 7.568-15.485 12.824-26.56 12.824-22.833-.105-36.375-17.397-36.375-37.738ZM436.186 151.843V64.542h18.791v11.825c5.826-7.568 15.327-12.824 26.559-12.824 22.676 0 36.428 17.292 36.428 37.632v50.615h-18.791V99.967c0-11.826-9.081-20.972-20.734-20.972-15.484 0-23.462 13.56-23.462 22.128v50.614h-18.791v.106ZM526.467 108.217c0-25.228 18.214-44.623 42.254-44.623 12.388 0 23.253 6.623 29.657 16.504V64.593h19.001v87.301h-19.001v-15.505c-6.614 9.881-17.427 16.503-29.657 16.503-24.04-.052-42.254-19.657-42.254-44.675Zm19.001 0c0 16.872 11.811 30.064 26.35 30.064 12.388 0 26.56-10.302 26.56-30.064 0-16.661-11.443-30.064-26.56-30.064-14.539 0-26.35 13.56-26.35 30.064ZM112.222 33.638c-9.92 3.311-14.697 9.25-17.951 18.5-.84 2.471-2.94 5.204-5.302 7.044l8.136 8.725-25.825-18.08L0 0s5.144 33.428 6.929 45.727c1.26 8.672 3.411 12.561 10.235 16.503l2.73 1.472 11.757 6.202-6.981-3.627 32.228 17.608-.21.473-34.695-16.084c1.837 6.308 5.406 18.449 6.929 23.81 1.627 5.781 3.464 7.884 9.08 9.934l10.34 3.784 6.404-2.523-8.136 5.414-40.679 51.665c27.032-25.123 49.918-34.058 66.662-41.364 21.363-9.25 34.223-15.189 42.621-36.528 5.984-14.98 10.655-34.164 16.587-41.575l12.65-16.188s-26.193 6.938-32.229 8.935Z"/></g><defs><clipPath id="a"><path fill="#fff" d="M0 0h617v160H0z"/></clipPath></defs></svg>