<svg xmlns="http://www.w3.org/2000/svg" width="403.94" height="88.22" viewBox="0 0 403.94 88.22"><defs><style>.cls-1{fill:#010101;}.cls-2{fill:#231f20;}</style></defs><g id="Layer_2" data-name="Layer 2"><g id="Layer_1-2" data-name="Layer 1"><path class="cls-1" d="M21.63.7q8.61,0,13.08,4t4.48,11.09a15.35,15.35,0,0,1-2.31,8.57,13.62,13.62,0,0,1-6.78,5.27l9.5,17a1.74,1.74,0,0,1,.21.76,1.54,1.54,0,0,1-1.51,1.52H32.44a2.78,2.78,0,0,1-2-.66,4.72,4.72,0,0,1-.93-1.2l-9-16H11.3v16a1.89,1.89,0,0,1-1.86,1.86H3.86a1.84,1.84,0,0,1-1.31-.55A1.78,1.78,0,0,1,2,47.05V2.56a1.78,1.78,0,0,1,.55-1.31A1.76,1.76,0,0,1,3.86.7ZM11.3,22.39h10A12.3,12.3,0,0,0,27.55,21c1.56-.91,2.34-2.66,2.34-5.23s-.78-4.29-2.34-5.17a12.88,12.88,0,0,0-6.27-1.3h-10Z" transform="translate(-2)"/><path class="cls-1" d="M80.24,40.3a1.88,1.88,0,0,1,1.86,1.86v4.89a1.9,1.9,0,0,1-1.86,1.86H50a1.9,1.9,0,0,1-1.86-1.86V2.56a1.82,1.82,0,0,1,.55-1.31A1.78,1.78,0,0,1,50,.7H79.69A1.78,1.78,0,0,1,81,1.25a1.82,1.82,0,0,1,.55,1.31V7.45a1.9,1.9,0,0,1-1.86,1.86H57.44v11H78.17A1.88,1.88,0,0,1,80,22.12V27a1.87,1.87,0,0,1-1.86,1.85H57.44V40.3Z" transform="translate(-2)"/><path class="cls-1" d="M107.17,0a24.38,24.38,0,0,1,8.12,1.24,20.11,20.11,0,0,1,5.86,3.1,13.36,13.36,0,0,1,3.54,4.09A10.66,10.66,0,0,1,126,12.68a1.54,1.54,0,0,1-.52,1.34,2,2,0,0,1-1.34.52h-4.82a2.87,2.87,0,0,1-1.76-.45,4.38,4.38,0,0,1-1.07-1.2,9,9,0,0,0-3.13-3,12.21,12.21,0,0,0-6.23-1.27,14.44,14.44,0,0,0-3.41.38,9.57,9.57,0,0,0-2.83,1.1A5.75,5.75,0,0,0,99,11.85a4.17,4.17,0,0,0-.69,2.35A4.69,4.69,0,0,0,99,16.78a5.26,5.26,0,0,0,2.21,1.72,21.84,21.84,0,0,0,4.1,1.34c1.69.42,3.81.9,6.33,1.45a44.18,44.18,0,0,1,7.13,2.1,16.67,16.67,0,0,1,4.89,2.89,10.76,10.76,0,0,1,2.82,3.89,12.76,12.76,0,0,1,.93,5A12.22,12.22,0,0,1,126,41a13.35,13.35,0,0,1-3.93,4.55,19.8,19.8,0,0,1-6.27,3,28.94,28.94,0,0,1-8.33,1.1,28.63,28.63,0,0,1-7.37-.92A21.7,21.7,0,0,1,93.91,46a14.88,14.88,0,0,1-4.38-4.24,11.3,11.3,0,0,1-1.86-5.51,1.55,1.55,0,0,1,.52-1.34,2,2,0,0,1,1.34-.52h4.83a3.31,3.31,0,0,1,1.79.42,3.11,3.11,0,0,1,1,1.24,13.1,13.1,0,0,0,1.17,1.79,6.29,6.29,0,0,0,1.86,1.58,11,11,0,0,0,2.93,1.14,17.83,17.83,0,0,0,4.37.45,25.35,25.35,0,0,0,4-.31,11.83,11.83,0,0,0,3.38-1,7.31,7.31,0,0,0,2.34-1.79,4,4,0,0,0,.9-2.65,3.38,3.38,0,0,0-1-2.48,7.67,7.67,0,0,0-2.93-1.65,40.85,40.85,0,0,0-4.85-1.31q-2.9-.61-6.68-1.58a36.63,36.63,0,0,1-6-2,14.2,14.2,0,0,1-4.27-2.79,10.31,10.31,0,0,1-2.51-3.89,15.32,15.32,0,0,1-.83-5.33,12.11,12.11,0,0,1,1.38-5.72A13.52,13.52,0,0,1,94.22,4,18.59,18.59,0,0,1,100,1.08,23.44,23.44,0,0,1,107.17,0Z" transform="translate(-2)"/><path class="cls-1" d="M133.61,18.67a24.38,24.38,0,0,1,1.48-7.26,16.73,16.73,0,0,1,3.76-5.93,17.67,17.67,0,0,1,6.19-4A23.68,23.68,0,0,1,153.86,0a23.93,23.93,0,0,1,8.75,1.44,17.11,17.11,0,0,1,6.19,4,17.39,17.39,0,0,1,3.79,5.92,23.71,23.71,0,0,1,1.52,7.3c0,.87.08,1.84.1,2.89s0,2.15,0,3.28,0,2.21,0,3.27-.06,2-.1,2.89a24.51,24.51,0,0,1-1.48,7.27,16.78,16.78,0,0,1-3.76,5.92,17.39,17.39,0,0,1-6.23,4,27.47,27.47,0,0,1-17.6,0,17.59,17.59,0,0,1-6.19-4,16.78,16.78,0,0,1-3.76-5.92A24.51,24.51,0,0,1,133.61,31c0-.87-.08-1.84-.1-2.89s0-2.15,0-3.27,0-2.22,0-3.28S133.57,19.54,133.61,18.67Zm31.2.35a10.81,10.81,0,0,0-3.2-7.68,12.4,12.4,0,0,0-15.5,0,10.81,10.81,0,0,0-3.2,7.68c-.09,1.74-.14,3.68-.14,5.82s0,4.07.14,5.82a10.7,10.7,0,0,0,3.2,7.64,12.51,12.51,0,0,0,15.5,0,10.7,10.7,0,0,0,3.2-7.64c.09-1.75.14-3.69.14-5.82s0-4.08-.14-5.82Z" transform="translate(-2)"/><path class="cls-1" d="M220.46.7a1.78,1.78,0,0,1,1.31.55,1.82,1.82,0,0,1,.55,1.31V30.79a23,23,0,0,1-1.24,7.72,16,16,0,0,1-3.72,5.92,16.62,16.62,0,0,1-6.2,3.82,28.38,28.38,0,0,1-17.25,0,16.63,16.63,0,0,1-6.17-3.82,15.48,15.48,0,0,1-3.68-5.92,23.57,23.57,0,0,1-1.21-7.72V2.56a1.79,1.79,0,0,1,.56-1.31,1.74,1.74,0,0,1,1.3-.55h5.58a1.74,1.74,0,0,1,1.31.55,1.74,1.74,0,0,1,.55,1.31V30.45a13.63,13.63,0,0,0,.76,4.82A8.59,8.59,0,0,0,195,38.54a8.37,8.37,0,0,0,3.31,1.86,14.55,14.55,0,0,0,4.2.59,14.87,14.87,0,0,0,4.24-.59,8.36,8.36,0,0,0,3.34-1.86,8.8,8.8,0,0,0,2.17-3.27,13.19,13.19,0,0,0,.79-4.82V2.56a1.74,1.74,0,0,1,.55-1.31A1.74,1.74,0,0,1,215,.7Z" transform="translate(-2)"/><path class="cls-1" d="M252.34.7q8.61,0,13.09,4t4.48,11.09a15.35,15.35,0,0,1-2.31,8.57,13.66,13.66,0,0,1-6.78,5.27l9.5,17a1.74,1.74,0,0,1,.21.76A1.55,1.55,0,0,1,269,48.91h-5.85a2.78,2.78,0,0,1-2-.66,4.5,4.5,0,0,1-.93-1.2l-9-16H242v16a1.88,1.88,0,0,1-1.86,1.86h-5.57a1.88,1.88,0,0,1-1.86-1.86V2.56a1.74,1.74,0,0,1,.55-1.31A1.74,1.74,0,0,1,234.58.7ZM242,22.39h10A12.3,12.3,0,0,0,258.27,21c1.56-.91,2.34-2.66,2.34-5.23s-.78-4.29-2.34-5.17A12.88,12.88,0,0,0,252,9.31H242Z" transform="translate(-2)"/><path class="cls-1" d="M308.47,33.62a2,2,0,0,1,.73-1.35,2.08,2.08,0,0,1,1.27-.44h5.58a1.93,1.93,0,0,1,1.34.51,1.54,1.54,0,0,1,.52,1.35,17.52,17.52,0,0,1-1.41,5.64,14.72,14.72,0,0,1-3.69,5.1,19.4,19.4,0,0,1-6.26,3.72,25.73,25.73,0,0,1-9.16,1.44A23,23,0,0,1,289,48.18a17.94,17.94,0,0,1-6.2-3.92,17.61,17.61,0,0,1-4-6,24.74,24.74,0,0,1-1.68-7.64c-.09-1.75-.14-3.68-.14-5.79s.05-4,.14-5.78a24.74,24.74,0,0,1,1.68-7.65,17.57,17.57,0,0,1,4-6A18,18,0,0,1,289,1.42,23.16,23.16,0,0,1,297.39,0a25.73,25.73,0,0,1,9.16,1.44,19.58,19.58,0,0,1,6.26,3.72,14.76,14.76,0,0,1,3.69,5.13,17.93,17.93,0,0,1,1.41,5.62,1.52,1.52,0,0,1-.52,1.34,1.94,1.94,0,0,1-1.34.52h-5.58a2.23,2.23,0,0,1-1.31-.45,1.89,1.89,0,0,1-.75-1.34,7.63,7.63,0,0,0-1-2.69A8.24,8.24,0,0,0,305.38,11a10.92,10.92,0,0,0-3.31-1.69,15.17,15.17,0,0,0-4.68-.65,12.12,12.12,0,0,0-4.69.82,9.84,9.84,0,0,0-3.34,2.21A9.38,9.38,0,0,0,287.3,15a13.89,13.89,0,0,0-.86,4.07c-.1,1.74-.14,3.67-.14,5.78s0,4,.14,5.79a13.34,13.34,0,0,0,.86,4.09A9.44,9.44,0,0,0,289.36,38a10,10,0,0,0,3.34,2.2,12.32,12.32,0,0,0,4.69.83,14.88,14.88,0,0,0,4.68-.66,11.07,11.07,0,0,0,3.34-1.69,8,8,0,0,0,2.1-2.34A7.31,7.31,0,0,0,308.47,33.62Z" transform="translate(-2)"/><path class="cls-1" d="M358.06,40.3a1.88,1.88,0,0,1,1.86,1.86v4.89a1.89,1.89,0,0,1-1.86,1.86H327.83A1.88,1.88,0,0,1,326,47.05V2.56a1.74,1.74,0,0,1,.55-1.31A1.74,1.74,0,0,1,327.83.7h29.68a1.76,1.76,0,0,1,1.31.55,1.82,1.82,0,0,1,.55,1.31V7.45a1.89,1.89,0,0,1-1.86,1.86H335.26v11H356a1.87,1.87,0,0,1,1.86,1.86V27A1.87,1.87,0,0,1,356,28.86H335.26V40.3Z" transform="translate(-2)"/><path class="cls-1" d="M385,0a24.4,24.4,0,0,1,8.13,1.24A20.18,20.18,0,0,1,399,4.35a13.39,13.39,0,0,1,3.55,4.09,10.59,10.59,0,0,1,1.34,4.24,1.51,1.51,0,0,1-.52,1.34,1.94,1.94,0,0,1-1.34.52h-4.82a2.87,2.87,0,0,1-1.76-.45,4.73,4.73,0,0,1-1.07-1.2,9,9,0,0,0-3.13-3A12.21,12.21,0,0,0,385,8.62a14.5,14.5,0,0,0-3.41.38,9.51,9.51,0,0,0-2.82,1.1,5.69,5.69,0,0,0-1.9,1.75,4.17,4.17,0,0,0-.69,2.35,4.61,4.61,0,0,0,.66,2.58A5.17,5.17,0,0,0,379,18.5a21.84,21.84,0,0,0,4.1,1.34q2.55.63,6.34,1.45a44.06,44.06,0,0,1,7.12,2.1,16.54,16.54,0,0,1,4.89,2.89,10.91,10.91,0,0,1,2.83,3.89,12.94,12.94,0,0,1,.93,5A12.35,12.35,0,0,1,403.86,41a13.24,13.24,0,0,1-3.93,4.55,19.75,19.75,0,0,1-6.26,3,29,29,0,0,1-8.34,1.1,28.68,28.68,0,0,1-7.37-.92A21.82,21.82,0,0,1,371.73,46a15,15,0,0,1-4.37-4.24,11.1,11.1,0,0,1-1.86-5.51,1.51,1.51,0,0,1,.51-1.34,2,2,0,0,1,1.35-.52h4.82a3.31,3.31,0,0,1,1.79.42A3,3,0,0,1,375,36a13.1,13.1,0,0,0,1.17,1.79A6.41,6.41,0,0,0,378,39.4,11.14,11.14,0,0,0,381,40.54a17.83,17.83,0,0,0,4.37.45,25.48,25.48,0,0,0,4-.31,11.67,11.67,0,0,0,3.37-1A7.2,7.2,0,0,0,395,37.85a4,4,0,0,0,.9-2.65,3.38,3.38,0,0,0-1-2.48,7.71,7.71,0,0,0-2.92-1.65,40.5,40.5,0,0,0-4.86-1.31c-1.93-.41-4.15-.94-6.68-1.58a36.22,36.22,0,0,1-6-2,14.08,14.08,0,0,1-4.27-2.79,10.46,10.46,0,0,1-2.52-3.89,15.09,15.09,0,0,1-.82-5.33,12.1,12.1,0,0,1,1.37-5.72A13.64,13.64,0,0,1,372,4a18.59,18.59,0,0,1,5.75-2.92A23.44,23.44,0,0,1,385,0Z" transform="translate(-2)"/><path class="cls-2" d="M2.6,65.76H16.52v4.18H7.59v5.11h7.63v4.18H7.59v8.58h-5Z" transform="translate(-2)"/><path class="cls-2" d="M35.87,76.69c0-7.21,4.07-11.34,10-11.34s10,4.16,10,11.34-4.07,11.53-10,11.53S35.87,83.9,35.87,76.69Zm14.93,0c0-4.42-1.9-7-4.91-7S41,72.27,41,76.69s1.9,7.22,4.91,7.22S50.8,81.11,50.8,76.69Z" transform="translate(-2)"/><path class="cls-2" d="M77,65.76h7.94c4.68,0,8.52,1.62,8.52,6.86,0,5.07-3.84,7.26-8.52,7.26H82v7.93H77Zm7.54,10.16c2.62,0,4-1.13,4-3.3s-1.41-2.91-4-2.91H82v6.21ZM84,78.56l3.45-3.19,7,12.44H88.92Z" transform="translate(-2)"/><path class="cls-2" d="M138.32,65.76h6.24c6.74,0,11.08,3.35,11.08,10.93s-4.34,11.12-10.8,11.12h-6.52Zm5.94,18c3.74,0,6.27-1.84,6.27-7.11s-2.53-6.92-6.27-6.92h-.95v14Z" transform="translate(-2)"/><path class="cls-2" d="M176.73,65.76h13.82v4.18h-8.83v4.43h7.52v4.18h-7.52v5.08h9.17v4.18H176.73Z" transform="translate(-2)"/><path class="cls-2" d="M210.77,85l2.86-3.42a8.8,8.8,0,0,0,5.42,2.3c2.08,0,3.1-.82,3.1-2.12S220.89,80,219,79.16l-2.87-1.22c-2.28-.93-4.45-2.81-4.45-6,0-3.65,3.27-6.57,7.86-6.57a10.18,10.18,0,0,1,7.09,2.89l-2.52,3.14a7.18,7.18,0,0,0-4.57-1.72c-1.72,0-2.82.71-2.82,2s1.45,1.85,3.37,2.61l2.81,1.14c2.7,1.09,4.38,2.89,4.38,6,0,3.67-3.06,6.84-8.31,6.84A12.16,12.16,0,0,1,210.77,85Z" transform="translate(-2)"/><path class="cls-2" d="M247.92,65.76h5v22h-5Z" transform="translate(-2)"/><path class="cls-2" d="M274,76.91c0-7.32,4.87-11.56,10.76-11.56a9.56,9.56,0,0,1,7,2.86l-2.63,3.2a5.73,5.73,0,0,0-4.17-1.75c-3.39,0-5.81,2.66-5.81,7.08s2.06,7.17,6.21,7.17a4,4,0,0,0,2.34-.65V79.45H284V75.38h8.09V85.55a10.65,10.65,0,0,1-7.28,2.67C278.71,88.22,274,84.34,274,76.91Z" transform="translate(-2)"/><path class="cls-2" d="M313.53,65.76h5.11l5.76,11,2.18,4.84h.14c-.24-2.33-.64-5.42-.64-8V65.76h4.75v22h-5.11l-5.75-11L317.78,72h-.13c.23,2.43.64,5.38.64,8v7.82h-4.76Z" transform="translate(-2)"/><path class="cls-2" d="M353,65.76h13.82v4.18h-8.84v4.43h7.52v4.18h-7.52v5.08h9.18v4.18H353Z" transform="translate(-2)"/><path class="cls-2" d="M388.42,65.76h7.94c4.68,0,8.51,1.62,8.51,6.86,0,5.07-3.83,7.26-8.51,7.26h-3v7.93h-5ZM396,75.92c2.63,0,4-1.13,4-3.3s-1.41-2.91-4-2.91H393.4v6.21Zm-.5,2.64,3.45-3.19,7,12.44h-5.58Z" transform="translate(-2)"/></g></g></svg>